{
	"asset":{
		"generator":"Khronos glTF Blender I/O v4.3.47",
		"version":"2.0"
	},
	"scene":0,
	"scenes":[
		{
			"extras":{
				"sprytile_data":{
					"auto_reload":false,
					"world_pixels":32
				},
				"mcprep_skins_list":[
					{
						"label":"alex.png skin",
						"description":"alex.png skin",
						"name":"alex.png"
					},
					{
						"label":"redshirt.png skin",
						"description":"redshirt.png skin",
						"name":"redshirt.png"
					},
					{
						"label":"steve.png skin",
						"description":"steve.png skin",
						"name":"steve.png"
					},
					{
						"label":"template-skin.png skin",
						"description":"template-skin.png skin",
						"name":"template-skin.png"
					},
					{
						"label":"theduckcow.png skin",
						"description":"theduckcow.png skin",
						"name":"theduckcow.png"
					},
					{
						"label":"thekindkitten.png skin",
						"description":"thekindkitten.png skin",
						"name":"thekindkitten.png"
					}
				],
				"mcprep_props":{}
			},
			"name":"Scene",
			"nodes":[
				0
			]
		}
	],
	"nodes":[
		{
			"extras":{
				"selection_order":0
			},
			"mesh":0,
			"name":"TreeLog"
		}
	],
	"materials":[
		{
			"doubleSided":true,
			"emissiveFactor":[
				1,
				1,
				1
			],
			"emissiveTexture":{
				"index":0
			},
			"name":"TreeLog",
			"pbrMetallicRoughness":{
				"baseColorFactor":[
					0,
					0,
					0,
					1
				]
			}
		}
	],
	"meshes":[
		{
			"name":"Cylinder",
			"primitives":[
				{
					"attributes":{
						"POSITION":0,
						"NORMAL":1,
						"TEXCOORD_0":2,
						"TANGENT":3
					},
					"indices":4,
					"material":0
				}
			]
		}
	],
	"textures":[
		{
			"sampler":0,
			"source":0
		}
	],
	"images":[
		{
			"mimeType":"image/png",
			"name":"T_Plants.png.001",
			"uri":"../../textures/T_Plants.png"
		}
	],
	"accessors":[
		{
			"bufferView":0,
			"componentType":5126,
			"count":242,
			"max":[
				0.75,
				0.6638128757476807,
				0.2500000298023224
			],
			"min":[
				-0.75,
				0.0030635595321655273,
				-0.2500000298023224
			],
			"type":"VEC3"
		},
		{
			"bufferView":1,
			"componentType":5126,
			"count":242,
			"type":"VEC3"
		},
		{
			"bufferView":2,
			"componentType":5126,
			"count":242,
			"type":"VEC2"
		},
		{
			"bufferView":3,
			"componentType":5126,
			"count":242,
			"type":"VEC4"
		},
		{
			"bufferView":4,
			"componentType":5123,
			"count":564,
			"type":"SCALAR"
		}
	],
	"bufferViews":[
		{
			"buffer":0,
			"byteLength":2904,
			"byteOffset":0,
			"target":34962
		},
		{
			"buffer":0,
			"byteLength":2904,
			"byteOffset":2904,
			"target":34962
		},
		{
			"buffer":0,
			"byteLength":1936,
			"byteOffset":5808,
			"target":34962
		},
		{
			"buffer":0,
			"byteLength":3872,
			"byteOffset":7744,
			"target":34962
		},
		{
			"buffer":0,
			"byteLength":1128,
			"byteOffset":11616,
			"target":34963
		}
	],
	"samplers":[
		{
			"magFilter":9728,
			"minFilter":9984
		}
	],
	"buffers":[
		{
			"byteLength":12744,
			"uri":"TreeLog-cdd3e10442a0d51df7015a29dcdfeb29.bin"
		}
	]
}
